<?xml version="1.0" encoding="UTF-8"?>
<svg width="16px" height="16px" viewBox="0 0 16 16" version="1.1" xmlns="http://www.w3.org/2000/svg" xmlns:xlink="http://www.w3.org/1999/xlink">
    <!-- Generator: sketchtool 55.2 (78181) - https://sketchapp.com -->
    <title>4f511978-311b-4bb2-a5bd-9976bb9d7e84@1.00x</title>
    <desc>Created with sketchtool.</desc>
    <defs>
        <path d="M2.73509333,13.45916 C2.56569333,13.4848267 2.39489333,13.4138933 2.29222667,13.27576 C2.18956,13.1376267 2.17136,12.9542267 2.24462667,12.79836 L3.50696,10.1220267 C4.51356,11.27096 5.94249333,12.0376933 7.55156,12.17396 L6.34429333,14.7326933 C6.27102667,14.8880933 6.11796,14.99076 5.94622667,14.99916 C5.93782667,14.9996267 5.93036,15.0000933 5.92242667,15.0000933 C5.75909333,15.0000933 5.60742667,14.9146933 5.52296,14.7742267 L4.56722667,13.1870933 L2.73509333,13.45916 Z M8.58191333,12.1738667 C10.19098,12.0376 11.6199133,11.2708667 12.6265133,10.1219333 L13.8524467,12.7222 C13.9089133,12.7992 13.9425133,12.8944 13.9425133,12.9975333 C13.9420467,13.2565333 13.72318,13.4520667 13.4716467,13.4642 C13.45438,13.4660667 13.4226467,13.4628 13.39838,13.4590667 L11.5662467,13.1874667 L10.6105133,14.7741333 C10.52558,14.9146 10.3739133,15 10.2110467,15 C10.2031133,15 10.19518,14.9995333 10.1872467,14.9995333 C10.0155133,14.9906667 9.86244667,14.888 9.78871333,14.7326 L8.58191333,12.1738667 Z M8.06657333,11.26676 C5.23624,11.26676 2.93324,8.96376 2.93324,6.13342667 C2.93324,3.30262667 5.23624,1.00009333 8.06657333,1.00009333 C10.8973733,1.00009333 13.1999067,3.30262667 13.1999067,6.13342667 C13.1999067,8.96376 10.8973733,11.26676 8.06657333,11.26676 Z M5.29084,5.43856 C5.23437333,5.60702667 5.27917333,5.79276 5.40517333,5.91782667 L6.38890667,6.89129333 L6.14437333,8.25396 C6.11310667,8.42849333 6.18357333,8.60629333 6.32684,8.71176 C6.46917333,8.81722667 6.66050667,8.83216 6.81777333,8.75096 L8.04744,8.11629333 L9.26777333,8.76962667 C9.33684,8.80649333 9.41244,8.82469333 9.48804,8.82469333 C9.58370667,8.82469333 9.67844,8.79529333 9.75964,8.73742667 C9.90430667,8.63429333 9.97757333,8.45789333 9.94864,8.28242667 L9.72510667,6.91696 L10.7233067,5.95842667 C10.8511733,5.83522667 10.8987733,5.65042667 10.84464,5.48102667 C10.79144,5.31162667 10.6463067,5.18749333 10.47084,5.16042667 L9.10257333,4.95136 L8.49964,3.70536 C8.42217333,3.54529333 8.26024,3.44356 8.08290667,3.44216 C7.90044,3.43049333 7.74224,3.54016 7.66244,3.69882667 L7.04084,4.93549333 L5.66977333,5.12402667 C5.49384,5.14782667 5.34684,5.27009333 5.29084,5.43856 Z" id="path-1"></path>
    </defs>
    <g id="Icons" stroke="none" stroke-width="1" fill="none" fill-rule="evenodd">
        <g id="Icons/16/Medal">
            <mask id="mask-2" fill="white">
                <use xlink:href="#path-1"></use>
            </mask>
            <use id="Medal" fill="#24292D" xlink:href="#path-1"></use>
        </g>
    </g>
</svg>