<?xml version="1.0" encoding="UTF-8"?>
<svg width="16px" height="16px" viewBox="0 0 16 16" version="1.1" xmlns="http://www.w3.org/2000/svg" xmlns:xlink="http://www.w3.org/1999/xlink">
    <!-- Generator: sketchtool 55.2 (78181) - https://sketchapp.com -->
    <title>dc85efb8-4153-4a32-83d8-f97f4d327445@1.00x</title>
    <desc>Created with sketchtool.</desc>
    <defs>
        <path d="M12.25,8.231 C14.5,9.646 16,12.145 16,15 L16,16 L0,16 L0,15 C0,12.145 1.5,9.646 3.75,8.231 C4.837,9.323 6.341,10 8,10 C9.659,10 11.163,9.323 12.25,8.231 Z M8,8 C5.790861,8 4,6.209139 4,4 C4,1.790861 5.790861,-2.203e-13 8,-2.203e-13 C10.209139,-2.203e-13 12,1.790861 12,4 C12,6.209139 10.209139,8 8,8 Z" id="path-1"></path>
    </defs>
    <g id="Icons" stroke="none" stroke-width="1" fill="none" fill-rule="evenodd">
        <g id="Icons/16/Single">
            <mask id="mask-2" fill="white">
                <use xlink:href="#path-1"></use>
            </mask>
            <use id="Single" fill="#24292D" xlink:href="#path-1"></use>
        </g>
    </g>
</svg>