<?xml version="1.0" encoding="UTF-8"?>
<svg width="72px" height="72px" viewBox="0 0 72 72" version="1.1" xmlns="http://www.w3.org/2000/svg" xmlns:xlink="http://www.w3.org/1999/xlink">
    <!-- Generator: sketchtool 55.2 (78181) - https://sketchapp.com -->
    <title>06361b91-313c-4d4b-8ea0-584e26fbcb84@1.00x</title>
    <desc>Created with sketchtool.</desc>
    <g id="Logo-app" stroke="none" stroke-width="1" fill="none" fill-rule="evenodd">
        <g id="Logos/Glyph/Fit/DropshipConnector" fill="white">
            <path d="M65.7783195,35.0782885 C62.2316003,27.690423 54.6924236,22.7310859 46.1476812,22.7307744 L26.2930117,22.7307744 C25.8272942,20.7263465 25.8672753,18.5761192 26.5121347,16.4666223 L22.0625049,15.106234 C18.9930535,14.1698663 16.4217934,12.0516068 14.9152127,9.21814062 C13.408632,6.38467441 13.0903457,3.06848752 14.0305296,-3.90798505e-14 C31.6162662,5.37649924 43.8022154,9.1021178 50.5883771,11.1768557 C60.7674496,14.289519 67.2043639,24.3050052 65.8075353,34.8573063 L65.7783195,35.0782885 Z M19.2277338,45.0001862 L13.8866981,45.0001862 C10.2030261,45.0023821 6.66957881,43.58077 4.06482889,41.0485527 C1.46007897,38.5163354 -0.00225370086,35.0812815 2.60715473e-06,31.5001862 L43.8815765,31.5001862 C56.1000534,31.5006191 66.5273108,40.0886076 68.5354193,51.8053256 L72.0000026,72.0001862 L50.475156,72.0001862 C46.7919839,72.0007955 43.2594849,70.5786739 40.6550889,68.0468007 C38.0506929,65.5149274 36.5878362,62.0807955 36.5884632,58.5001862 L33.1144267,58.5001862 C25.4451261,58.4999323 19.2279948,52.4559251 19.2277338,45.0001862 Z" id="Combined-Shape"></path>
        </g>
    </g>
</svg>