<?xml version="1.0" encoding="UTF-8"?>
<svg width="72px" height="72px" viewBox="0 0 72 72" version="1.1" xmlns="http://www.w3.org/2000/svg" xmlns:xlink="http://www.w3.org/1999/xlink">
    <!-- Generator: sketchtool 55.2 (78181) - https://sketchapp.com -->
    <title>8aae1915-2abe-435d-94bb-7957e9d33d62@1.00x</title>
    <desc>Created with sketchtool.</desc>
    <g id="Logo-app" stroke="none" stroke-width="1" fill="none" fill-rule="evenodd">
        <g id="Logos/Glyph/Fit/Printhub" fill="#33ADFF">
            <path d="M59.7120789,30.1737871 L59.486092,62.441238 C59.464547,65.5175347 56.9646348,68 53.8882626,68 L18.3152913,68 C15.2236196,68 12.7173245,65.4937049 12.7173245,62.4020332 C12.7173245,62.3889649 12.7173703,62.3758966 12.7174618,62.3628285 L12.9417274,30.3411503 L11.8094325,31.3867869 C10.0854552,32.9788224 7.42749811,32.9788224 5.70352082,31.3867869 L1.43163515,27.441843 C-0.394203378,25.755742 -0.507483063,22.9087526 1.17861789,21.082914 C1.25956916,20.9952538 1.34397496,20.910848 1.43163515,20.8298968 L15.0855691,8.22094441 C16.9798101,5.65946361 20.0221696,4 23.4498776,4 L25.9734644,4 C27.0727306,8.29746738 31.2533516,11.4954955 36.2428155,11.4954955 C41.2322795,11.4954955 45.4129004,8.29746738 46.5121666,4 L49.426099,4 C52.9066662,4 55.9877457,5.71040986 57.8746649,8.33655692 L70.5683648,20.0587652 C70.656025,20.1397165 70.7404308,20.2241223 70.8213821,20.3117825 C72.5074831,22.137621 72.3942034,24.9846105 70.5683648,26.6707114 L66.2964792,30.6156553 C64.5725019,32.2076908 61.9145448,32.2076908 60.1905675,30.6156553 L59.7120789,30.1737871 Z M47.363791,43.3061224 C47.363791,36.9115434 35.7908971,22.2857143 35.7908971,22.2857143 C35.7908971,22.2857143 24.2180033,36.8435587 24.2180033,43.3061224 C24.2180033,49.7686862 29.4291682,54.9387755 35.7908971,54.9387755 C42.152626,54.9387755 47.363791,49.7686862 47.363791,43.3061224 Z" id="Combined-Shape"></path>
        </g>
    </g>
</svg>