<?xml version="1.0" encoding="UTF-8"?>
<svg width="72px" height="72px" viewBox="0 0 72 72" version="1.1" xmlns="http://www.w3.org/2000/svg" xmlns:xlink="http://www.w3.org/1999/xlink">
    <!-- Generator: sketchtool 55.2 (78181) - https://sketchapp.com -->
    <title>98475ad4-046b-49ff-ac70-6141beea8afc@1.00x</title>
    <desc>Created with sketchtool.</desc>
    <g id="Logo" stroke="none" stroke-width="1" fill="none" fill-rule="evenodd">
        <g id="Logos/Glyph/Fit/Boostflow" fill="#33ADFF">
            <path d="M19,52 L4,52 C1.790861,52 0,50.209139 0,48 C0,45.790861 1.790861,44 4,44 L27,44 C29.209139,44 31,42.209139 31,40 C31,37.790861 29.209139,36 27,36 L11,36 C8.790861,36 7,34.209139 7,32 C7,29.790861 8.790861,28 11,28 C13.3799101,28.0011687 14.72826,28.0017531 15.0450497,28.0017531 C15.196792,24.3946135 15.7292612,22.7722942 16.6027962,21.1389258 C17.6486388,19.1833702 19.1833702,17.6486388 21.1389258,16.6027962 C23.0944813,15.5569537 25.0341988,15 30.3833112,15 L32,15 L32,12 C32,5.372583 37.372583,2.84217094e-14 44,2.84217094e-14 C50.627417,2.84217094e-14 56,5.372583 56,12 L56,15 L56.6166888,15 C61.9658012,15 63.9055187,15.5569537 65.8610742,16.6027962 C67.8166298,17.6486388 69.3513612,19.1833702 70.3972038,21.1389258 C71.4430463,23.0944813 72,25.0341988 72,30.3833112 L72,56.6166888 C72,61.9658012 71.4430463,63.9055187 70.3972038,65.8610742 C69.3513612,67.8166298 67.8166298,69.3513612 65.8610742,70.3972038 C63.9055187,71.4430463 61.9658012,72 56.6166888,72 L30.3833112,72 C25.0341988,72 23.0944813,71.4430463 21.1389258,70.3972038 C19.1833702,69.3513612 17.6486388,67.8166298 16.6027962,65.8610742 C15.8145585,64.3871978 15.3040311,62.9223181 15.1003543,60 L19,60 C21.209139,60 23,58.209139 23,56 C23,53.790861 21.209139,52 19,52 Z M36,15 L52,15 L52,12 C52,7.581722 48.418278,4 44,4 C39.581722,4 36,7.581722 36,12 L36,15 Z" id="Glyph"></path>
        </g>
    </g>
</svg>